<?xml version="1.0" encoding="utf-8"?>
<!-- Generator: Adobe Illustrator 27.6.1, SVG Export Plug-In . SVG Version: 6.00 Build 0)  -->
<svg version="1.1" id="zeno" xmlns="http://www.w3.org/2000/svg" xmlns:xlink="http://www.w3.org/1999/xlink" x="0px" y="0px"
	 viewBox="0 0 512 512" style="enable-background:new 0 0 512 512;" xml:space="preserve">
<style type="text/css">
	.st0{fill:#0D5693;}
	.st1{fill:#0D5EAF;}
	.st2{fill:#FF0000;}
	.st3{fill:#0E527F;}
	.st4{fill:#CCCCCC;}
	.st5{fill:#E6E6E6;}
</style>
<polygon class="st0" points="256.11,507.91 81.11,482.91 53.69,64.38 131.32,7.91 256.97,7.91 "/>
<polygon class="st1" points="256.97,7.91 380.68,7.91 460.25,61.83 431.11,482.91 256.11,507.91 "/>
<path class="st2" d="M131.32,7.91"/>
<path class="st3" d="M256.11,507.91c-20.13-2.18-160.42-22.23-171.82-24.29c-11.4-2.06-19.88-6.34-25.41-12.83
	c-5.54-6.49-9.03-16.08-10.45-28.74c-1.42-12.67-2.14-29.61-2.14-50.83v-66.97c0-17.41-0.71-30.32-2.14-38.71
	c-1.43-8.39-4.12-13.93-8.08-16.62c-3.96-2.69-9.74-4.04-17.34-4.04v-35.15c7.6,0,13.37-1.42,17.34-4.27
	c3.96-2.85,6.65-8.55,8.08-17.1c1.42-8.55,2.14-21.38,2.14-38.48v-66.5c0-21.21,0.71-38.16,2.14-50.82
	c1.42-12.66,4.91-22.24,10.45-28.74C64.42,17.34,72.9,13.06,84.3,11c11.4-2.06,27.08-3.09,47.03-3.09H256l0.11,37.53H131.32
	c-7.92,0-14.09,0.64-18.53,1.9c-4.44,1.27-7.6,3.8-9.5,7.6c-1.9,3.8-3.01,9.58-3.32,17.34c-0.32,7.76-0.48,18.13-0.48,31.11v74.1
	c0,23.75-2.85,40.69-8.55,50.83c-5.7,10.14-13.3,16.47-22.8,19c9.5,2.22,17.1,8.39,22.8,18.53c5.7,10.14,8.55,27.07,8.55,50.82
	v74.58c0,13.3,0.16,23.82,0.48,31.59c0.31,7.76,1.42,13.54,3.32,17.34c1.9,3.8,5.06,7.77,9.5,8.89
	c4.43,1.11,135.4,19.49,143.32,19.49V507.91z"/>
<path class="st0" d="M256.11,468.54c7.92,0,138.66-18.38,143.09-19.49c4.44-1.11,7.6-5.09,9.5-8.89c1.9-3.8,3.01-9.58,3.32-17.34
	c0.32-7.76,0.48-18.29,0.48-31.59v-74.58c0-23.75,2.85-40.69,8.55-50.82c5.7-10.13,13.3-16.31,22.8-18.53
	c-9.5-2.53-17.1-8.86-22.8-19c-5.7-10.13-8.55-27.08-8.55-50.83v-74.1c0-12.98-0.16-23.35-0.48-31.11
	c-0.31-7.76-1.42-13.54-3.32-17.34c-1.9-3.8-5.06-6.33-9.5-7.6c-4.43-1.26-10.61-1.9-18.53-1.9H256.11L256,7.91h124.68
	c19.95,0,35.62,1.03,47.03,3.09c11.4,2.06,19.88,6.34,25.41,12.82c5.54,6.49,9.03,16.08,10.45,28.74
	c1.42,12.67,2.14,29.61,2.14,50.82v66.5c0,17.1,0.71,29.93,2.14,38.48c1.43,8.55,4.12,14.25,8.08,17.1
	c3.96,2.85,9.74,4.27,17.34,4.27v35.15c-7.6,0-13.37,1.35-17.34,4.04c-3.96,2.69-6.65,8.24-8.08,16.62
	c-1.42,8.39-2.14,21.3-2.14,38.71v66.97c0,21.21-0.71,38.16-2.14,50.83c-1.42,12.66-4.91,22.24-10.45,28.74
	c-5.54,6.49-14.01,10.76-25.41,12.83c-11.4,2.06-151.46,22.1-171.59,24.29V468.54z"/>
<g>
	<path class="st4" d="M145.67,97.42c23.82-0.31,76.03-0.43,110.33-0.43v-30c-3.47,0-112.19,0.01-124.08,0.75
		c-12.09,0.75-13.91,9.17-15.07,14.01c-1.15,4.84-1,9.33-1.12,12.75s-0.3,28.56-0.3,28.56l30,0.22
		C145.49,113.2,145.6,101.97,145.67,97.42z"/>
	<path class="st4" d="M256,416.71c-31.73-4.22-75.34-10.07-101.15-13.61c3.52-3.98,7.44-8.18,10.99-11.9
		c0.93-0.98,1.77-1.85,2.47-2.6c2.78-2.95,13.64-15,35.98-39.8c14.82-16.44,32.78-38.58,51.7-62.99v-63.29
		c-43.33,56-88.88,114.26-114.36,144.6c-2.34,2.78-25.59,29.58-25.59,42.04c0,12.7,5.01,18.9,12.11,20.43
		c4.38,0.94,124.22,16.89,127.85,17.37V416.71z"/>
</g>
<g>
	<path class="st5" d="M396.2,377.01v0.01l-30,0.18c0.05,7.28,0.09,19.42,0.02,24.7c-0.44,0.06-0.87,0.12-1.29,0.18l-108.86,14.63
		c-0.08-0.01-0.15-0.02-0.23-0.03v30.27c0.15,0.02,0.25,0.03,0.25,0.03l112.84-15.17c0,0,6.56-0.89,9.11-1.38
		c8.28-1.58,15.96-2.97,17.54-17.95c0.25-2.4,0.44-2.37,0.6-8.02C396.34,398.82,396.2,377.01,396.2,377.01z"/>
	<path class="st5" d="M255.84,96.99c0.08,0,0.17,0,0.25,0h96.7c-18.7,24.11-56.89,73.98-96.95,125.75v63.29
		c52.48-67.69,112.33-152.94,132.6-182.72c7.81-11.54,7.23-14.72,7.42-16.83c0.79-8.72-0.11-19.49-26.58-19.49
		c-10.24,0-113.19,0-113.19,0s-0.1,0-0.25,0V96.99z"/>
</g>
</svg>
